<svg xmlns="http://www.w3.org/2000/svg" xmlns:xlink="http://www.w3.org/1999/xlink" width="500" zoomAndPan="magnify" viewBox="0 0 375 374.999991" height="500" preserveAspectRatio="xMidYMid meet" version="1.2"><g id="45af9a4e2d"><path style=" stroke:none;fill-rule:nonzero;fill:#2196f3;fill-opacity:1;" d="M 56.035156 281.25 L 256.035156 281.25 L 256.035156 181.25 L 168.535156 181.25 L 168.535156 131.25 L 56.035156 131.25 Z M 56.035156 306.25 C 49.160156 306.25 43.273438 303.800781 38.378906 298.90625 C 33.480469 294.011719 31.035156 288.125 31.035156 281.25 L 31.035156 131.25 C 31.035156 124.375 33.480469 118.488281 38.378906 113.59375 C 43.273438 108.699219 49.160156 106.25 56.035156 106.25 L 256.035156 106.25 C 262.910156 106.25 268.792969 108.699219 273.691406 113.59375 C 278.585938 118.488281 281.035156 124.375 281.035156 131.25 L 281.035156 281.25 C 281.035156 288.125 278.585938 294.011719 273.691406 298.90625 C 268.792969 303.800781 262.910156 306.25 256.035156 306.25 Z M 56.035156 281.25 L 56.035156 131.25 Z M 56.035156 281.25 "/><path style=" stroke:none;fill-rule:nonzero;fill:#2196f3;fill-opacity:1;" d="M 254.277344 81.40625 L 266.464844 86.5625 C 267.925781 83.644531 269.433594 80.832031 270.996094 78.125 C 272.558594 75.417969 274.277344 72.707031 276.152344 70 L 267.402344 68.28125 Z M 276.464844 94.375 L 294.277344 112.03125 C 298.652344 110.363281 303.339844 107.8125 308.339844 104.375 C 313.339844 100.9375 318.027344 97.03125 322.402344 92.65625 C 329.695312 85.363281 335.398438 77.265625 339.511719 68.359375 C 343.628906 59.453125 345.425781 51.25 344.902344 43.75 C 337.402344 43.230469 329.175781 45.027344 320.214844 49.140625 C 311.257812 53.253906 303.132812 58.957031 295.839844 66.25 C 291.464844 70.625 287.558594 75.3125 284.121094 80.3125 C 280.683594 85.3125 278.132812 90 276.464844 94.375 Z M 304.277344 84.21875 C 301.882812 81.824219 300.683594 78.878906 300.683594 75.390625 C 300.683594 71.902344 301.882812 68.957031 304.277344 66.5625 C 306.675781 64.167969 309.644531 62.96875 313.183594 62.96875 C 316.726562 62.96875 319.695312 64.167969 322.089844 66.5625 C 324.488281 68.957031 325.683594 71.902344 325.683594 75.390625 C 325.683594 78.878906 324.488281 81.824219 322.089844 84.21875 C 319.695312 86.613281 316.726562 87.8125 313.183594 87.8125 C 309.644531 87.8125 306.675781 86.613281 304.277344 84.21875 Z M 307.246094 134.375 L 320.371094 121.25 L 318.652344 112.5 C 315.945312 114.375 313.238281 116.066406 310.527344 117.578125 C 307.820312 119.089844 305.007812 120.574219 302.089844 122.03125 Z M 356.152344 32.34375 C 358.132812 44.949219 356.910156 57.214844 352.480469 69.140625 C 348.054688 81.066406 340.425781 92.449219 329.589844 103.28125 L 332.714844 118.75 C 333.132812 120.832031 333.027344 122.863281 332.402344 124.84375 C 331.777344 126.824219 330.738281 128.542969 329.277344 130 L 303.027344 156.25 L 289.902344 125.46875 L 263.183594 98.75 L 232.402344 85.625 L 258.496094 59.375 C 259.957031 57.917969 261.699219 56.875 263.730469 56.25 C 265.761719 55.625 267.820312 55.519531 269.902344 55.9375 L 285.371094 59.0625 C 296.207031 48.230469 307.558594 40.574219 319.433594 36.09375 C 331.308594 31.613281 343.550781 30.363281 356.152344 32.34375 Z M 243.496094 118.59375 C 247.144531 114.949219 251.597656 113.097656 256.855469 113.046875 C 262.117188 112.996094 266.570312 114.792969 270.214844 118.4375 C 273.863281 122.082031 275.660156 126.535156 275.605469 131.796875 C 275.554688 137.058594 273.707031 141.511719 270.058594 145.15625 C 267.457031 147.761719 263.105469 150 257.011719 151.875 C 250.917969 153.75 242.507812 155.417969 231.777344 156.875 C 233.238281 146.144531 234.902344 137.734375 236.777344 131.640625 C 238.652344 125.546875 240.894531 121.199219 243.496094 118.59375 Z M 252.402344 127.34375 C 251.363281 128.386719 250.320312 130.285156 249.277344 133.046875 C 248.238281 135.808594 247.507812 138.59375 247.089844 141.40625 C 249.902344 140.988281 252.691406 140.285156 255.449219 139.296875 C 258.210938 138.308594 260.113281 137.292969 261.152344 136.25 C 262.402344 135 263.082031 133.488281 263.183594 131.71875 C 263.289062 129.949219 262.714844 128.4375 261.464844 127.1875 C 260.214844 125.9375 258.707031 125.339844 256.933594 125.390625 C 255.164062 125.441406 253.652344 126.09375 252.402344 127.34375 Z M 252.402344 127.34375 "/></g></svg>